ply
format ascii 1.0
element vertex 9
property float x
property float y
property float z
property float f_dc_0
property float f_dc_1
property float f_dc_2
property float opacity
property float scale_0
property float scale_1
property float scale_2
property float rot_0
property float rot_1
property float rot_2
property float rot_3
end_header
-0.05 0 -0.05 0.2 0.1 0.05 2.2 -3.9 -3.9 -3.9 1 0 0 0
0 0 -0.05 0.2 0.1 0.05 2.2 -3.9 -3.9 -3.9 1 0 0 0
0.05 0 -0.05 0.2 0.1 0.05 2.2 -3.9 -3.9 -3.9 1 0 0 0
-0.05 0 0 0.2 0.1 0.05 2.2 -3.9 -3.9 -3.9 1 0 0 0
0 0 0 0.5 0.3 0.1 2.2 -3.9 -3.9 -3.9 1 0 0 0
0.05 0 0 0.2 0.1 0.05 2.2 -3.9 -3.9 -3.9 1 0 0 0
-0.05 0 0.05 0.2 0.1 0.05 2.2 -3.9 -3.9 -3.9 1 0 0 0
0 0 0.05 0.2 0.1 0.05 2.2 -3.9 -3.9 -3.9 1 0 0 0
0.05 0 0.05 0.2 0.1 0.05 2.2 -3.9 -3.9 -3.9 1 0 0 0
